# xmcd CD database file
#
# Track frame offsets:
#	150
#	14003
#	26628
#	40291
#	54526
#	71502
#	95036
#	111524
#	128238
#	146022
#	159689
#	177472
#	190631
#
# Disc length: 2697 seconds
#
# Revision: 1
# Processed by: cddbd v1.5.2PL0 Copyright (c) Steve Scherf et al.
# Submitted via: CDex 1.51
#
DISCID=c10a870d
DTITLE=Mary Sarah And Friends - Bridges
DYEAR=2014
DGENRE=Country
TTITLE0=Jolene -  Mary Sarah - Dolly Parton
TTITLE1=Crazy - Mary Sarah - Willie Nelson
TTITLE2=Heartaches By The Number - Mary Sarah - Ray Price
TTITLE3=The Fightin' Side Of Me - Mary Sarah - Merle Haggard
TTITLE4=Texas when i die - Mary Sarah - Tanya Tucker
TTITLE5=Go Rest High On That Mountain - Mary Sarah - Vince Gill
TTITLE6=Rose Garden - Mary Sarah - Lynn Anderson
TTITLE7=Dream On - Mary Sarah - The Oakridge Boys
TTITLE8=What A Difference You've Made In My Life - Mary Sarah - Ronnie Milsap
TTITLE9=Where The Boys Are - Mary Sarah - Neil Sedaka
TTITLE10=My Great Escape - Mary Sarah - Big N Rich
TTITLE11=All I Want To Do Is Sing My Song - Mary Sarah - Freddy Powers
TTITLE12=I'm Sorry - Mary Sarah
EXTD=YEAR: 2014
EXTT0=
EXTT1=
EXTT2=
EXTT3=
EXTT4=
EXTT5=
EXTT6=
EXTT7=
EXTT8=
EXTT9=
EXTT10=
EXTT11=
EXTT12=
PLAYORDER=
